<svg width="95" height="95" viewBox="0 0 95 95" fill="none" xmlns="http://www.w3.org/2000/svg">
<g filter="url(#filter0_d_1423_9898)">
<rect x="5" y="5" width="85" height="85" rx="15" fill="url(#paint0_linear_1423_9898)"/>
</g>
<path d="M63.3652 56.4C63.1202 56.4 62.8752 56.4175 62.6302 56.435C62.6652 55.9975 62.6827 55.5775 62.6827 55.14C62.6827 51.1325 61.0377 47.475 58.3602 44.99L58.0627 45.3225L55.9977 47.58L55.5602 48.07L51.9027 52.13C50.8877 53.2325 49.4702 53.8625 48.0002 53.8625C46.5302 53.8625 45.1127 53.2325 44.1152 52.13L42.0677 49.855L41.7527 49.5225L39.6352 47.1425C38.4277 48.875 37.6227 50.905 37.3077 53.0575C36.3627 52.7775 35.3827 52.6375 34.3852 52.6375C28.4177 52.6375 23.5527 57.7825 23.5527 64.1C23.5527 66.165 24.0777 68.195 25.0752 69.945C25.9327 71.485 27.6477 72.4475 29.5377 72.4475H67.0227C69.4202 72.4475 71.5027 70.855 72.1152 68.545C72.3427 67.6875 72.4477 66.8125 72.4477 65.955C72.4477 60.6875 68.3702 56.4 63.3652 56.4ZM53.4777 60.215C52.0777 61.7725 50.0827 62.6475 48.0002 62.6475C45.9177 62.6475 43.9227 61.7725 42.5227 60.215C42.2118 59.8715 42.05 59.4186 42.073 58.9559C42.0959 58.4931 42.3018 58.0585 42.6452 57.7475C42.9887 57.4365 43.4416 57.2747 43.9044 57.2977C44.3671 57.3207 44.8018 57.5265 45.1127 57.87C46.6177 59.5325 49.3827 59.5325 50.8877 57.87C51.1987 57.5265 51.6334 57.3207 52.0961 57.2977C52.5589 57.2747 53.0118 57.4365 53.3552 57.7475C53.6987 58.0585 53.9045 58.4931 53.9275 58.9559C53.9505 59.4186 53.7887 59.8715 53.4777 60.215Z" fill="white"/>
<path d="M49.0327 23.5525H46.9677C44.0802 23.5525 41.7177 25.8975 41.7177 28.8025V35.61H37.8502C37.1502 35.61 36.5202 36.0125 36.2402 36.6425C35.9602 37.29 36.0827 38.025 36.5552 38.5325L41.9977 44.5525L44.3427 47.1775L46.7052 49.785C47.0377 50.1525 47.5102 50.3625 48.0002 50.3625C48.4902 50.3625 48.9627 50.1525 49.2952 49.785L52.9702 45.7075L55.4552 42.9775L59.4627 38.5325C59.9177 38.025 60.0402 37.29 59.7602 36.6425C59.4802 36.0125 58.8502 35.61 58.1502 35.61H54.2827V28.8025C54.2827 25.8975 51.9377 23.5525 49.0327 23.5525Z" fill="white"/>
<defs>
<filter id="filter0_d_1423_9898" x="0" y="0" width="95" height="95" filterUnits="userSpaceOnUse" color-interpolation-filters="sRGB">
<feFlood flood-opacity="0" result="BackgroundImageFix"/>
<feColorMatrix in="SourceAlpha" type="matrix" values="0 0 0 0 0 0 0 0 0 0 0 0 0 0 0 0 0 0 127 0" result="hardAlpha"/>
<feMorphology radius="1" operator="dilate" in="SourceAlpha" result="effect1_dropShadow_1423_9898"/>
<feOffset/>
<feGaussianBlur stdDeviation="2"/>
<feComposite in2="hardAlpha" operator="out"/>
<feColorMatrix type="matrix" values="0 0 0 0 0 0 0 0 0 0 0 0 0 0 0 0 0 0 0.25 0"/>
<feBlend mode="normal" in2="BackgroundImageFix" result="effect1_dropShadow_1423_9898"/>
<feBlend mode="normal" in="SourceGraphic" in2="effect1_dropShadow_1423_9898" result="shape"/>
</filter>
<linearGradient id="paint0_linear_1423_9898" x1="47.5" y1="5" x2="47.5" y2="90" gradientUnits="userSpaceOnUse">
<stop stop-color="#005CE6"/>
<stop offset="1" stop-color="#4791FF"/>
</linearGradient>
</defs>
</svg>
